<svg width="68" height="66" viewBox="0 0 68 66" fill="none" xmlns="http://www.w3.org/2000/svg">
    <path d="M13.77 23.52c0 4.19 3.41 7.6 7.6 7.6 4.19 0 7.6-3.41 7.6-7.6 0-4.19-3.41-7.6-7.6-7.6-4.19 0-7.6 3.41-7.6 7.6zm1.86 0c0-3.16 2.57-5.74 5.74-5.74a5.74 5.74 0 1 1-5.74 5.74z" fill="#1F1F1F"/>
    <path d="M21.37 31.22c-4.25 0-7.7-3.45-7.7-7.7s3.45-7.7 7.7-7.7 7.7 3.45 7.7 7.7-3.45 7.7-7.7 7.7zm0-15.2c-4.14 0-7.5 3.36-7.5 7.5 0 4.14 3.36 7.5 7.5 7.5 4.14 0 7.5-3.36 7.5-7.5 0-4.14-3.36-7.5-7.5-7.5zm0 13.34c-3.22 0-5.84-2.62-5.84-5.84 0-3.22 2.62-5.84 5.84-5.84 3.22 0 5.84 2.62 5.84 5.84 0 3.22-2.62 5.84-5.84 5.84zm0-11.47c-3.11 0-5.64 2.53-5.64 5.64s2.53 5.64 5.64 5.64 5.64-2.53 5.64-5.64-2.53-5.64-5.64-5.64zM31.14 43.19c0 .52.4.93.91.93s.91-.42.91-.93c0-5.68-5.45-10.27-12.1-10.27-6.65 0-12.1 4.59-12.1 10.27 0 .52.4.93.91.93s.91-.42.91-.93c0-4.62 4.59-8.4 10.27-8.4s10.27 3.78 10.27 8.4h.02z" fill="#1F1F1F"/>
    <path d="M32.06 44.22c-.56 0-1.01-.46-1.01-1.03 0-4.58-4.56-8.3-10.17-8.3s-10.17 3.72-10.17 8.3c0 .57-.45 1.03-1.01 1.03s-1.01-.46-1.01-1.03c0-5.72 5.47-10.37 12.2-10.37 6.73 0 12.2 4.65 12.2 10.37 0 .57-.45 1.03-1.01 1.03h-.02zm-11.19-9.53c5.72 0 10.37 3.81 10.37 8.5 0 .46.36.83.81.83.45 0 .81-.37.81-.83 0-5.61-5.38-10.17-12-10.17s-12 4.56-12 10.17c0 .46.36.83.81.83.45 0 .81-.37.81-.83 0-4.69 4.65-8.5 10.37-8.5h.02z" fill="#1F1F1F"/>
    <path d="M53.38 57.32c8.01 0 14.5-6.49 14.5-14.5s-6.49-14.5-14.5-14.5-14.5 6.49-14.5 14.5 6.49 14.5 14.5 14.5z" fill="#6ECFB2"/>
    <path d="M49.38 57.32c-8 0-14.5-6.5-14.5-14.5s6.5-14.5 14.5-14.5 14.5 6.5 14.5 14.5-6.5 14.5-14.5 14.5zm0-27.21c-7 0-12.7 5.7-12.7 12.7 0 7 5.7 12.7 12.7 12.7 7 0 12.7-5.7 12.7-12.7 0-7-5.7-12.7-12.7-12.7z" fill="#1F1F1F"/>
    <path d="m54.96 38.06-7.47 7.48-3.02-3.02a.947.947 0 0 0-.67-.28c-.25 0-.49.1-.67.28a.922.922 0 0 0-.28.67c0 .12.02.25.07.36.05.12.12.22.21.31l3.7 3.7a.937.937 0 0 0 .68.28c.25 0 .5-.1.68-.28l8.15-8.15a.922.922 0 0 0 .28-.67c0-.12-.02-.25-.07-.36a.945.945 0 0 0-.21-.31.945.945 0 0 0-.31-.21.946.946 0 0 0-1.05.2h-.02z" fill="#1F1F1F"/>
    <path d="M37.9 65.91H5.57C2.5 65.91 0 63.41 0 60.34V5.57c0-1.49.58-2.89 1.64-3.95C2.7.57 4.09.03 5.58 0h32.33c3.07 0 5.57 2.5 5.57 5.57v19.74c0 .5-.4.9-.9.9s-.9-.4-.9-.9V5.57c0-2.08-1.69-3.77-3.77-3.77H5.58c-1 .03-1.95.39-2.67 1.1A3.72 3.72 0 0 0 1.8 5.57v54.77c0 2.08 1.69 3.77 3.77 3.77H37.9c2.08 0 3.77-1.69 3.77-3.77v-.54c0-.5.4-.9.9-.9s.9.4.9.9v.54c0 3.07-2.5 5.57-5.57 5.57z" fill="#1F1F1F"/>
</svg>
