<svg width="71" height="62" viewBox="0 0 71 62" fill="none" xmlns="http://www.w3.org/2000/svg">
    <path d="M8.72.14a.998.998 0 0 0-1.37.35.998.998 0 0 0 .35 1.37L8.72.14zM7.7 1.86l9.27 5.51 1.02-1.72L8.72.14 7.7 1.86zm9.27 5.51c1.06.63 1.44 1.97.89 3.06l1.78.91c1.03-2.03.31-4.52-1.65-5.69l-1.02 1.72zm.89 3.06L4.84 36.07l1.78.91 13.02-25.64-1.78-.91zM4.84 36.07c-.54 1.07-1.67 1.72-2.85 1.63l-.15 1.99c2 .15 3.88-.95 4.78-2.72l-1.78-.91v.01zM1.99 37.7c-.42-.03-.78-.12-1.06-.27L0 39.2c.6.31 1.25.45 1.84.49l.15-1.99z" fill="#1F1F1F"/>
    <path d="m34.62 59.22-.62-.78.63.78h-.01zm.82.62a.999.999 0 1 0-1.3-1.52l1.3 1.52zM5.12 38.08l23.3 21.62 1.36-1.47-23.3-21.61-1.36 1.47v-.01zm23.3 21.62c1.88 1.74 4.8 1.92 6.83.29L34 58.43c-1.23.99-3.03.9-4.22-.2l-1.36 1.47zm6.83.29c.07-.05.13-.11.2-.16l-1.3-1.52s-.1.08-.14.12l1.25 1.56h-.01zM39.79 58.26c-1.28 0-2.56-.47-3.56-1.37l-8.57-7.73A.997.997 0 1 1 29 47.68l8.57 7.73c1.1.99 2.72 1.14 3.92.36.29-.18.58-.41.88-.67.42-.36 1.05-.32 1.41.09.36.42.32 1.05-.09 1.41-.37.33-.75.61-1.12.85-.85.54-1.81.81-2.78.81zM51.17 53.56c.42-.36.46-1 .09-1.41-.36-.42-1-.46-1.41-.09l1.32 1.5zm-18.02-9.24 10.56 9.53 1.34-1.48-10.56-9.53-1.34 1.48zm10.56 9.53c1.74 1.57 4.34 1.85 6.34.56l-1.08-1.68c-1.21.78-2.83.63-3.93-.36l-1.34 1.49.01-.01zm6.34.56c.37-.23.74-.52 1.12-.85l-1.32-1.5c-.31.27-.6.49-.88.67l1.08 1.68z" fill="#1F1F1F"/>
    <path d="M56.77 15.22s-13.75-3.6-19.56-3.78L20.5 25.06l3.47 4.62 11.47-5.03 21.65 18.28 7.44-3.15-7.75-24.56h-.01z" fill="#6ECFB2"/>
    <path d="M48.3 14.54a.999.999 0 0 0 1.26-.65.999.999 0 0 0-.65-1.26l-.6 1.91h-.01zm-8.87 24.9 12.12 10.91 1.34-1.49-12.12-10.91-1.34 1.49zm12.12 10.91c1.15 1.04 2.71 1.59 4.29 1.39l-.24-1.99c-.96.12-1.96-.21-2.71-.89l-1.34 1.49zm4.29 1.39c.69-.09 1.47-.32 2.14-.86.68-.56 1.16-1.37 1.36-2.47l-1.97-.35c-.12.68-.38 1.04-.65 1.26-.29.23-.67.37-1.12.43l.25 1.98-.01.01zm3.5-3.33c.33-1.86-.35-3.72-1.67-5.01l-1.39 1.43c.88.85 1.29 2.07 1.09 3.23l1.97.35zm-1.67-5.01L37.16 23.46l-1.39 1.43 20.51 19.94 1.39-1.43zM37.16 23.46c-.93-.9-2.36-1.07-3.46-.39l1.05 1.7c.32-.2.75-.15 1.02.11l1.39-1.43v.01zm-3.46-.39-7.08 4.33 1.04 1.71 7.08-4.33-1.04-1.71zm-7.08 4.33c-.97.59-2.14.75-3.18.42l-.62 1.9c1.64.53 3.41.26 4.84-.61l-1.04-1.71zm-3.18.42c-.44-.14-.81-.35-1.09-.64-.26-.28-.48-.68-.54-1.31l-1.99.19c.1 1.04.49 1.86 1.07 2.48.57.61 1.27.97 1.93 1.18l.62-1.9zm-1.62-1.95c-.11-1.1.4-2.2 1.31-2.9l-1.22-1.59c-1.42 1.09-2.26 2.84-2.09 4.68l1.99-.19h.01zm1.31-2.9 12.29-9.39-1.21-1.59-12.29 9.39 1.21 1.59zm12.29-9.39a5.62 5.62 0 0 1 4.01-1.13l.21-1.99c-1.94-.2-3.89.35-5.44 1.53l1.22 1.59zm4.01-1.13c1.78.18 4.58.73 8.87 2.09l.6-1.91c-4.38-1.39-7.32-1.97-9.27-2.17l-.21 1.99h.01zM56.75 14.01l-.96.29.95-.29h.01zM69.46 42l.19.98-.2-.98h.01zm.45.93c.54-.13.87-.67.74-1.21-.13-.54-.67-.87-1.21-.74l.47 1.95zM66.7 5.49l-8.47 3.57.78 1.84 8.47-3.57-.78-1.84zm-8.47 3.57c-1.94.82-3.06 2.94-2.5 5.02l1.93-.52c-.29-1.06.29-2.21 1.35-2.66l-.78-1.84zm-2.51 5.01c.02.09.05.18.07.23l1.92-.57c-.02-.08-.03-.11-.04-.15l-1.94.5-.01-.01zm.07.24c.68 2.19 6.14 19.75 7.78 25.01l1.91-.59c-1.63-5.26-7.09-22.82-7.78-25.01l-1.91.6v-.01zm7.78 25.01c.8 2.57 3.4 4.19 6.07 3.67l-.39-1.96c-1.64.32-3.27-.67-3.78-2.3l-1.91.59h.01zm6.08 3.67c.07-.01.16-.03.26-.05l-.47-1.95c-.05.01-.11.02-.18.04l.39 1.96zM25.83 15.16a.997.997 0 1 0 .15-1.99l-.15 1.99zm-8.56-.65 8.56.65.15-1.99-8.56-.65-.15 1.99z" fill="#1F1F1F"/>
</svg>
