<svg width="59" height="66" viewBox="0 0 59 66" fill="none" xmlns="http://www.w3.org/2000/svg">
    <path d="M28.724 65.217c-.38 0-.75-.22-.92-.6-.22-.51 0-1.1.51-1.32 37.12-16.34 27.65-47.33 26.04-51.83-7.45-1.35-21.88-7.9-25.22-9.44-8.87 5.17-22.28 8.51-25.48 9.27-7.59 30.35 13.47 45.04 13.68 45.19.46.31.58.93.27 1.39-.31.46-.93.58-1.39.27-.23-.15-22.55-15.66-14.44-47.57.15-.59.62-1.04 1.2-1.17 1.63-.38 16.29-3.87 25.34-9.19.45-.26 1-.29 1.47-.07 1.79.83 17.71 8.15 25.13 9.41.55.09 1.02.46 1.22 1 1.4 3.77 12.44 37.21-27.03 54.59-.13.06-.27.08-.4.08l.02-.01z" fill="#1F1F1F"/>
    <path d="M29.294 52.907s-24.14-8.26-17.27-34.14c.07-.24.26-.42.5-.47 1.94-.39 10.62-2.29 16.4-6.08.22-.14.5-.15.72 0 1.3.9 6.25 3.97 15.78 5.94.24.05.43.23.5.46.87 3.13 5.97 24.67-16.63 34.29z" fill="#6ECFB2"/>
    <path d="M26.614 38.217c-.39 0-.77-.15-1.06-.44l-4.5-4.5a1.49 1.49 0 0 1 0-2.12 1.49 1.49 0 0 1 2.12 0l3.51 3.51 9.94-8.59c.63-.54 1.58-.47 2.12.15.54.63.47 1.57-.15 2.12l-11 9.5c-.28.24-.63.37-.98.37z" fill="#1F1F1F"/>
</svg>
