<svg width="100" height="116" viewBox="0 0 100 116" fill="none" xmlns="http://www.w3.org/2000/svg">
<rect width="100" height="116" fill="#3E2080"/>
<path d="M37.1972 55.3691L37.2111 55.3695L37.225 55.3691C37.2633 55.368 37.2998 55.3669 37.335 55.3657C37.4301 55.3627 37.5162 55.36 37.605 55.36C44.5132 55.36 50.7585 56.6146 55.4277 59.2665C60.0784 61.9079 63.1693 65.9336 63.8284 71.5415C63.8422 71.6592 63.8597 72.3299 63.8763 73.1923C63.8859 73.6897 63.8951 74.2314 63.9035 74.733C63.9076 74.9751 63.9115 75.2079 63.9153 75.4218C63.8975 75.4336 63.8787 75.4462 63.8587 75.4594C63.6752 75.5809 63.4002 75.7584 63.0384 75.9788C62.315 76.4197 61.2452 77.0324 59.8677 77.7141C57.1122 79.0778 53.1295 80.7155 48.2282 81.8072C38.4888 83.9765 25.1153 83.9932 10.5047 75.4006C10.5107 75.0803 10.517 74.7172 10.5234 74.3448C10.53 73.958 10.5368 73.5613 10.5438 73.1921C10.5601 72.3298 10.5768 71.66 10.5906 71.5417C11.2506 65.9333 14.342 61.9075 18.9929 59.2662C23.6622 56.6144 29.9073 55.36 36.815 55.36C36.9043 55.36 36.9886 55.3627 37.0828 55.3656C37.1192 55.3668 37.157 55.368 37.1972 55.3691ZM76.604 33.0019V33.5019L77.104 33.5019L89.5 33.5028V37.0268H77.105H76.605V37.5268V48.9943H72.729V37.5268V37.0268H72.229H59.833V33.5028H72.228H72.728V33.0028V21.5354H76.604V33.0019ZM50.677 30.1984C50.677 38.7962 44.5875 45.648 37.212 45.648C29.8355 45.648 23.747 38.7953 23.747 30.1984C23.747 25.9183 25.2623 22.5651 27.6805 20.2801C30.1031 17.9911 33.4661 16.7422 37.212 16.7422C40.9574 16.7422 44.3204 17.991 46.7431 20.2802C49.1615 22.5651 50.677 25.9184 50.677 30.1984Z" fill="#F5F5F5" stroke="#3E2080"/>
<mask id="mask0_276_2" style="mask-type:luminance" maskUnits="userSpaceOnUse" x="0" y="102" width="61" height="11">
<path d="M61 102.08H0V112.288H61V102.08Z" fill="white"/>
</mask>
<g mask="url(#mask0_276_2)">
<path d="M61 102.08H0V112.288H61V102.08Z" fill="#F5F5F5" fill-opacity="0.01"/>
<path d="M3.52432 104.718H2.74662C2.73242 104.617 2.70342 104.528 2.65962 104.45C2.61582 104.37 2.5596 104.303 2.49094 104.247C2.42229 104.192 2.34298 104.149 2.25302 104.119C2.16424 104.09 2.06777 104.075 1.9636 104.075C1.77539 104.075 1.61144 104.122 1.47177 104.215C1.33209 104.308 1.22378 104.443 1.14684 104.62C1.0699 104.797 1.03143 105.011 1.03143 105.263C1.03143 105.522 1.0699 105.74 1.14684 105.916C1.22496 106.093 1.33386 106.226 1.47354 106.316C1.61322 106.406 1.7748 106.451 1.95827 106.451C2.06125 106.451 2.15654 106.437 2.24414 106.41C2.33292 106.383 2.41163 106.343 2.48029 106.291C2.54894 106.238 2.60576 106.173 2.65074 106.097C2.69691 106.022 2.72887 105.935 2.74662 105.838L3.52432 105.842C3.5042 106.009 3.45389 106.17 3.3734 106.325C3.29409 106.479 3.18696 106.616 3.05202 106.738C2.91826 106.859 2.75846 106.955 2.57262 107.026C2.38796 107.096 2.17903 107.131 1.94584 107.131C1.62151 107.131 1.3315 107.057 1.07581 106.911C0.821318 106.764 0.620087 106.551 0.472123 106.273C0.325343 105.995 0.251953 105.658 0.251953 105.263C0.251953 104.866 0.326527 104.529 0.475674 104.251C0.624822 103.973 0.827237 103.761 1.08292 103.615C1.3386 103.468 1.62624 103.395 1.94584 103.395C2.15654 103.395 2.35186 103.425 2.53178 103.484C2.71289 103.543 2.87328 103.629 3.01296 103.743C3.15264 103.855 3.26627 103.993 3.35387 104.157C3.44265 104.32 3.49946 104.507 3.52432 104.718ZM4.06143 107.081V104.354H4.79474V104.83H4.82315C4.87287 104.66 4.95632 104.533 5.07351 104.446C5.19069 104.359 5.32564 104.315 5.47834 104.315C5.51621 104.315 5.55705 104.317 5.60085 104.322C5.64465 104.327 5.68312 104.333 5.71626 104.341V105.013C5.68075 105.002 5.63163 104.992 5.56889 104.984C5.50615 104.976 5.44874 104.972 5.39666 104.972C5.28539 104.972 5.18596 104.996 5.09836 105.045C5.01195 105.092 4.9433 105.158 4.8924 105.243C4.84268 105.329 4.81782 105.427 4.81782 105.538V107.081H4.06143ZM7.22328 107.134C6.94274 107.134 6.70126 107.078 6.49884 106.964C6.29761 106.849 6.14255 106.687 6.03364 106.477C5.92474 106.267 5.87029 106.018 5.87029 105.73C5.87029 105.449 5.92474 105.203 6.03364 104.991C6.14255 104.779 6.29584 104.614 6.49352 104.496C6.69238 104.377 6.92557 104.318 7.19309 104.318C7.37301 104.318 7.54051 104.347 7.69558 104.405C7.85183 104.462 7.98795 104.548 8.10396 104.663C8.22114 104.778 8.31229 104.922 8.37739 105.096C8.4425 105.269 8.47505 105.471 8.47505 105.703V105.911H6.17214V105.442H7.76305C7.76305 105.333 7.73937 105.237 7.69203 105.153C7.64468 105.069 7.57898 105.003 7.49494 104.956C7.41208 104.907 7.3156 104.883 7.20552 104.883C7.0907 104.883 6.9889 104.91 6.90012 104.963C6.81253 105.015 6.74387 105.085 6.69416 105.174C6.64444 105.262 6.61899 105.359 6.61781 105.467V105.913C6.61781 106.048 6.64266 106.164 6.69238 106.263C6.74328 106.361 6.81489 106.437 6.90722 106.49C6.99955 106.543 7.10905 106.57 7.2357 106.57C7.31975 106.57 7.39669 106.558 7.46653 106.534C7.53637 106.511 7.59614 106.475 7.64586 106.428C7.69558 106.38 7.73346 106.322 7.7595 106.254L8.45907 106.3C8.42356 106.468 8.35076 106.615 8.24068 106.74C8.13177 106.864 7.99091 106.962 7.81809 107.031C7.64645 107.1 7.44818 107.134 7.22328 107.134ZM9.74636 107.133C9.57235 107.133 9.41729 107.102 9.28116 107.042C9.14503 106.98 9.03731 106.89 8.95801 106.77C8.87988 106.65 8.84082 106.499 8.84082 106.319C8.84082 106.168 8.86864 106.041 8.92427 105.938C8.9799 105.835 9.05566 105.752 9.15154 105.689C9.24742 105.626 9.35632 105.579 9.47825 105.547C9.60135 105.515 9.73038 105.493 9.86532 105.48C10.0239 105.463 10.1518 105.448 10.2488 105.433C10.3459 105.418 10.4163 105.395 10.4601 105.366C10.5039 105.336 10.5258 105.292 10.5258 105.234V105.224C10.5258 105.111 10.4903 105.024 10.4193 104.963C10.3494 104.901 10.25 104.87 10.121 104.87C9.98488 104.87 9.87657 104.901 9.79607 104.961C9.71558 105.02 9.66231 105.095 9.63627 105.185L8.9367 105.128C8.97221 104.962 9.04205 104.819 9.14622 104.698C9.25038 104.576 9.38473 104.483 9.54927 104.418C9.71499 104.351 9.90675 104.318 10.1245 104.318C10.276 104.318 10.4211 104.336 10.5595 104.372C10.6992 104.407 10.8229 104.462 10.9306 104.537C11.0395 104.611 11.1254 104.707 11.1881 104.824C11.2508 104.94 11.2822 105.079 11.2822 105.242V107.081H10.5649V106.703H10.5436C10.4998 106.788 10.4412 106.863 10.3678 106.928C10.2944 106.992 10.2062 107.043 10.1032 107.079C10.0002 107.115 9.8813 107.133 9.74636 107.133ZM9.96298 106.611C10.0742 106.611 10.1725 106.589 10.2577 106.545C10.3429 106.5 10.4098 106.44 10.4583 106.364C10.5069 106.288 10.5311 106.202 10.5311 106.106V105.817C10.5075 105.832 10.4749 105.846 10.4335 105.859C10.3932 105.871 10.3477 105.883 10.2968 105.893C10.2459 105.903 10.195 105.912 10.1441 105.92C10.0932 105.927 10.047 105.933 10.0056 105.939C9.91681 105.952 9.83928 105.973 9.77299 106.002C9.7067 106.03 9.65521 106.068 9.61852 106.117C9.58182 106.164 9.56347 106.223 9.56347 106.295C9.56347 106.397 9.60076 106.476 9.67533 106.531C9.75109 106.584 9.84697 106.611 9.96298 106.611ZM13.3197 104.354V104.922H11.6773V104.354H13.3197ZM12.0501 103.7H12.8065V106.243C12.8065 106.313 12.8172 106.367 12.8385 106.406C12.8598 106.444 12.8894 106.471 12.9273 106.486C12.9663 106.502 13.0113 106.509 13.0622 106.509C13.0977 106.509 13.1332 106.506 13.1687 106.5C13.2043 106.493 13.2315 106.488 13.2504 106.484L13.3694 107.047C13.3315 107.059 13.2782 107.073 13.2096 107.088C13.1409 107.105 13.0575 107.115 12.9592 107.118C12.7769 107.125 12.6171 107.101 12.4798 107.046C12.3437 106.99 12.2378 106.904 12.162 106.786C12.0862 106.669 12.049 106.521 12.0501 106.342V103.7ZM15.026 107.134C14.7454 107.134 14.504 107.078 14.3016 106.964C14.1003 106.849 13.9453 106.687 13.8364 106.477C13.7275 106.267 13.673 106.018 13.673 105.73C13.673 105.449 13.7275 105.203 13.8364 104.991C13.9453 104.779 14.0986 104.614 14.2962 104.496C14.4951 104.377 14.7283 104.318 14.9958 104.318C15.1757 104.318 15.3432 104.347 15.4983 104.405C15.6545 104.462 15.7907 104.548 15.9067 104.663C16.0239 104.778 16.115 104.922 16.1801 105.096C16.2452 105.269 16.2778 105.471 16.2778 105.703V105.911H13.9749V105.442H15.5658C15.5658 105.333 15.5421 105.237 15.4947 105.153C15.4474 105.069 15.3817 105.003 15.2977 104.956C15.2148 104.907 15.1183 104.883 15.0082 104.883C14.8934 104.883 14.7916 104.91 14.7028 104.963C14.6152 105.015 14.5466 105.085 14.4969 105.174C14.4472 105.262 14.4217 105.359 14.4205 105.467V105.913C14.4205 106.048 14.4454 106.164 14.4951 106.263C14.546 106.361 14.6176 106.437 14.7099 106.49C14.8023 106.543 14.9118 106.57 15.0384 106.57C15.1225 106.57 15.1994 106.558 15.2692 106.534C15.3391 106.511 15.3989 106.475 15.4486 106.428C15.4983 106.38 15.5362 106.322 15.5622 106.254L16.2618 106.3C16.2263 106.468 16.1535 106.615 16.0434 106.74C15.9345 106.864 15.7936 106.962 15.6208 107.031C15.4492 107.1 15.2509 107.134 15.026 107.134ZM17.7763 107.125C17.5692 107.125 17.3816 107.072 17.2135 106.966C17.0466 106.858 16.914 106.7 16.8158 106.492C16.7187 106.282 16.6702 106.025 16.6702 105.721C16.6702 105.408 16.7205 105.149 16.8211 104.942C16.9217 104.733 17.0555 104.578 17.2224 104.475C17.3905 104.37 17.5745 104.318 17.7746 104.318C17.9273 104.318 18.0545 104.344 18.1563 104.396C18.2593 104.447 18.3422 104.511 18.4049 104.588C18.4688 104.664 18.5173 104.739 18.5505 104.812H18.5736V103.445H19.3282V107.081H18.5825V106.644H18.5505C18.515 106.72 18.4647 106.795 18.3996 106.87C18.3356 106.943 18.2522 107.004 18.1492 107.053C18.0474 107.101 17.9231 107.125 17.7763 107.125ZM18.016 106.524C18.138 106.524 18.241 106.49 18.325 106.424C18.4102 106.357 18.4753 106.263 18.5203 106.142C18.5665 106.021 18.5896 105.88 18.5896 105.717C18.5896 105.555 18.5671 105.414 18.5221 105.295C18.4771 105.175 18.412 105.083 18.3268 105.018C18.2415 104.953 18.138 104.92 18.016 104.92C17.8918 104.92 17.787 104.954 17.7018 105.021C17.6165 105.089 17.552 105.182 17.5082 105.302C17.4644 105.422 17.4425 105.56 17.4425 105.717C17.4425 105.876 17.4644 106.016 17.5082 106.138C17.5532 106.259 17.6177 106.354 17.7018 106.422C17.787 106.49 17.8918 106.524 18.016 106.524ZM21.1215 107.081V103.445H21.8779V104.812H21.901C21.9341 104.739 21.9821 104.664 22.0448 104.588C22.1087 104.511 22.1916 104.447 22.2934 104.396C22.3964 104.344 22.5242 104.318 22.6769 104.318C22.8758 104.318 23.0593 104.37 23.2273 104.475C23.3954 104.578 23.5298 104.733 23.6304 104.942C23.731 105.149 23.7813 105.408 23.7813 105.721C23.7813 106.025 23.7322 106.282 23.6339 106.492C23.5369 106.7 23.4043 106.858 23.2362 106.966C23.0693 107.072 22.8823 107.125 22.6751 107.125C22.5284 107.125 22.4035 107.101 22.3005 107.053C22.1987 107.004 22.1152 106.943 22.0501 106.87C21.985 106.795 21.9353 106.72 21.901 106.644H21.8673V107.081H21.1215ZM21.8619 105.717C21.8619 105.88 21.8844 106.021 21.9294 106.142C21.9744 106.263 22.0395 106.357 22.1247 106.424C22.2099 106.49 22.3135 106.524 22.4354 106.524C22.5585 106.524 22.6627 106.49 22.7479 106.422C22.8332 106.354 22.8977 106.259 22.9415 106.138C22.9865 106.016 23.0089 105.876 23.0089 105.717C23.0089 105.56 22.987 105.422 22.9432 105.302C22.8995 105.182 22.8349 105.089 22.7497 105.021C22.6645 104.954 22.5597 104.92 22.4354 104.92C22.3123 104.92 22.2082 104.953 22.1229 105.018C22.0389 105.083 21.9744 105.175 21.9294 105.295C21.8844 105.414 21.8619 105.555 21.8619 105.717ZM24.6651 108.104C24.5692 108.104 24.4793 108.096 24.3952 108.081C24.3124 108.067 24.2437 108.048 24.1893 108.026L24.3597 107.461C24.4485 107.488 24.5284 107.503 24.5994 107.505C24.6716 107.508 24.7338 107.491 24.7858 107.456C24.8391 107.42 24.8823 107.36 24.9155 107.275L24.9598 107.159L23.9815 104.354H24.777L25.3416 106.357H25.37L25.94 104.354H26.7407L25.6807 107.376C25.6298 107.523 25.5606 107.65 25.473 107.759C25.3866 107.869 25.2771 107.954 25.1445 108.013C25.0119 108.074 24.8521 108.104 24.6651 108.104ZM31.5077 104.718H30.73C30.7158 104.617 30.6868 104.528 30.643 104.45C30.5992 104.37 30.543 104.303 30.4743 104.247C30.4057 104.192 30.3264 104.149 30.2364 104.119C30.1476 104.09 30.0511 104.075 29.947 104.075C29.7588 104.075 29.5948 104.122 29.4551 104.215C29.3155 104.308 29.2072 104.443 29.1302 104.62C29.0533 104.797 29.0148 105.011 29.0148 105.263C29.0148 105.522 29.0533 105.74 29.1302 105.916C29.2083 106.093 29.3172 106.226 29.4569 106.316C29.5966 106.406 29.7582 106.451 29.9417 106.451C30.0446 106.451 30.1399 106.437 30.2275 106.41C30.3163 106.383 30.395 106.343 30.4637 106.291C30.5323 106.238 30.5891 106.173 30.6341 106.097C30.6803 106.022 30.7122 105.935 30.73 105.838L31.5077 105.842C31.4876 106.009 31.4373 106.17 31.3568 106.325C31.2775 106.479 31.1703 106.616 31.0354 106.738C30.9016 106.859 30.7418 106.955 30.556 107.026C30.3713 107.096 30.1624 107.131 29.9292 107.131C29.6049 107.131 29.3149 107.057 29.0592 106.911C28.8047 106.764 28.6035 106.551 28.4555 106.273C28.3087 105.995 28.2353 105.658 28.2353 105.263C28.2353 104.866 28.3099 104.529 28.4591 104.251C28.6082 103.973 28.8106 103.761 29.0663 103.615C29.322 103.468 29.6096 103.395 29.9292 103.395C30.1399 103.395 30.3352 103.425 30.5152 103.484C30.6963 103.543 30.8567 103.629 30.9963 103.743C31.136 103.855 31.2497 103.993 31.3372 104.157C31.426 104.32 31.4828 104.507 31.5077 104.718ZM32.8012 105.504V107.081H32.0448V103.445H32.7799V104.835H32.8119C32.8734 104.674 32.9728 104.548 33.1102 104.457C33.2475 104.364 33.4197 104.318 33.6268 104.318C33.8162 104.318 33.9814 104.36 34.1222 104.443C34.2643 104.524 34.3744 104.642 34.4525 104.796C34.5318 104.949 34.5709 105.132 34.5697 105.345V107.081H33.8133V105.48C33.8145 105.311 33.7718 105.181 33.6854 105.087C33.6002 104.994 33.4807 104.947 33.3268 104.947C33.2238 104.947 33.1326 104.969 33.0533 105.013C32.9752 105.056 32.9137 105.12 32.8687 105.204C32.8249 105.287 32.8024 105.387 32.8012 105.504ZM36.9139 105.92V104.354H37.6703V107.081H36.944V106.586H36.9156C36.8541 106.745 36.7517 106.874 36.6085 106.971C36.4664 107.068 36.293 107.117 36.0882 107.117C35.9059 107.117 35.7455 107.075 35.607 106.992C35.4686 106.909 35.3602 106.792 35.2821 106.639C35.2052 106.486 35.1661 106.303 35.1649 106.09V104.354H35.9213V105.955C35.9225 106.116 35.9657 106.244 36.0509 106.337C36.1362 106.431 36.2504 106.477 36.3936 106.477C36.4848 106.477 36.57 106.457 36.6493 106.415C36.7286 106.373 36.7925 106.31 36.8411 106.227C36.8908 106.144 36.915 106.042 36.9139 105.92ZM39.0317 105.504V107.081H38.2753V104.354H38.9962V104.835H39.0281C39.0885 104.676 39.1897 104.551 39.3317 104.459C39.4738 104.365 39.646 104.318 39.8484 104.318C40.0378 104.318 40.203 104.36 40.3438 104.443C40.4847 104.525 40.5942 104.644 40.6723 104.798C40.7504 104.95 40.7895 105.133 40.7895 105.345V107.081H40.0331V105.48C40.0343 105.313 39.9917 105.182 39.9053 105.089C39.8188 104.994 39.6999 104.947 39.5484 104.947C39.4466 104.947 39.3566 104.969 39.2785 105.013C39.2015 105.056 39.1412 105.12 39.0974 105.204C39.0548 105.287 39.0329 105.387 39.0317 105.504ZM42.071 106.296L42.0728 105.389H42.1829L43.0564 104.354H43.9247L42.751 105.725H42.5717L42.071 106.296ZM41.3856 107.081V103.445H42.142V107.081H41.3856ZM43.0902 107.081L42.2876 105.893L42.7919 105.359L43.9762 107.081H43.0902ZM46.236 103.445V107.081H45.4672V103.445H46.236ZM48.0866 107.134C47.8073 107.134 47.567 107.075 47.3657 106.957C47.1657 106.837 47.0118 106.672 46.9041 106.46C46.7976 106.248 46.7443 106.004 46.7443 105.728C46.7443 105.449 46.7982 105.204 46.9059 104.993C47.0148 104.781 47.1692 104.616 47.3693 104.498C47.5693 104.378 47.8073 104.318 48.0831 104.318C48.321 104.318 48.5293 104.361 48.7081 104.448C48.8868 104.534 49.0283 104.656 49.1324 104.812C49.2366 104.968 49.294 105.152 49.3047 105.362H48.5909C48.5708 105.226 48.5175 105.117 48.4311 105.034C48.3459 104.95 48.234 104.908 48.0955 104.908C47.9783 104.908 47.8759 104.94 47.7883 105.004C47.7019 105.066 47.6344 105.158 47.5859 105.279C47.5374 105.4 47.5131 105.546 47.5131 105.717C47.5131 105.891 47.5368 106.039 47.5841 106.161C47.6327 106.283 47.7007 106.376 47.7883 106.44C47.8759 106.504 47.9783 106.536 48.0955 106.536C48.1819 106.536 48.2594 106.518 48.3281 106.483C48.3979 106.447 48.4554 106.396 48.5003 106.328C48.5465 106.26 48.5767 106.177 48.5909 106.081H49.3047C49.2928 106.29 49.236 106.473 49.1342 106.632C49.0336 106.789 48.8945 106.912 48.717 107.001C48.5394 107.09 48.3293 107.134 48.0866 107.134ZM51.0212 107.134C50.7454 107.134 50.5069 107.076 50.3056 106.959C50.1056 106.84 49.9511 106.676 49.8422 106.465C49.7333 106.253 49.6789 106.007 49.6789 105.728C49.6789 105.446 49.7333 105.2 49.8422 104.989C49.9511 104.778 50.1056 104.613 50.3056 104.496C50.5069 104.377 50.7454 104.318 51.0212 104.318C51.297 104.318 51.5349 104.377 51.735 104.496C51.9362 104.613 52.0913 104.778 52.2002 104.989C52.3091 105.2 52.3635 105.446 52.3635 105.728C52.3635 106.007 52.3091 106.253 52.2002 106.465C52.0913 106.676 51.9362 106.84 51.735 106.959C51.5349 107.076 51.297 107.134 51.0212 107.134ZM51.0247 106.548C51.1502 106.548 51.255 106.513 51.339 106.442C51.4231 106.37 51.4864 106.271 51.529 106.147C51.5728 106.023 51.5947 105.881 51.5947 105.723C51.5947 105.564 51.5728 105.423 51.529 105.298C51.4864 105.174 51.4231 105.076 51.339 105.004C51.255 104.931 51.1502 104.895 51.0247 104.895C50.8981 104.895 50.7916 104.931 50.7051 105.004C50.6199 105.076 50.5554 105.174 50.5116 105.298C50.469 105.423 50.4477 105.564 50.4477 105.723C50.4477 105.881 50.469 106.023 50.5116 106.147C50.5554 106.271 50.6199 106.37 50.7051 106.442C50.7916 106.513 50.8981 106.548 51.0247 106.548ZM53.6117 105.504V107.081H52.8554V104.354H53.5762V104.835H53.6082C53.6686 104.676 53.7698 104.551 53.9118 104.459C54.0539 104.365 54.2261 104.318 54.4285 104.318C54.6179 104.318 54.783 104.36 54.9239 104.443C55.0648 104.525 55.1742 104.644 55.2524 104.798C55.3305 104.95 55.3696 105.133 55.3696 105.345V107.081H54.6132V105.48C54.6144 105.313 54.5717 105.182 54.4853 105.089C54.3989 104.994 54.28 104.947 54.1284 104.947C54.0266 104.947 53.9367 104.969 53.8586 105.013C53.7816 105.056 53.7212 105.12 53.6774 105.204C53.6348 105.287 53.6129 105.387 53.6117 105.504ZM58.2349 105.132L57.5424 105.174C57.5306 105.115 57.5051 105.062 57.4661 105.014C57.427 104.966 57.3755 104.927 57.3116 104.899C57.2489 104.869 57.1737 104.855 57.0861 104.855C56.9689 104.855 56.8701 104.879 56.7896 104.929C56.7091 104.978 56.6688 105.043 56.6688 105.124C56.6688 105.19 56.6949 105.245 56.747 105.29C56.799 105.335 56.8884 105.371 57.0151 105.398L57.5087 105.497C57.7738 105.552 57.9715 105.639 58.1017 105.76C58.2319 105.881 58.297 106.039 58.297 106.236C58.297 106.415 58.2444 106.571 58.139 106.706C58.0348 106.841 57.8916 106.947 57.7093 107.022C57.5282 107.097 57.3193 107.134 57.0825 107.134C56.7215 107.134 56.4339 107.059 56.2196 106.909C56.0065 106.757 55.8817 106.551 55.845 106.291L56.5889 106.252C56.6114 106.362 56.6659 106.446 56.7523 106.504C56.8387 106.561 56.9494 106.589 57.0843 106.589C57.2169 106.589 57.3234 106.564 57.4039 106.513C57.4856 106.461 57.527 106.394 57.5282 106.312C57.527 106.244 57.498 106.187 57.4412 106.144C57.3844 106.099 57.2968 106.064 57.1784 106.041L56.7061 105.946C56.4398 105.893 56.2415 105.801 56.1113 105.67C55.9823 105.538 55.9178 105.371 55.9178 105.167C55.9178 104.992 55.9651 104.841 56.0598 104.714C56.1557 104.588 56.29 104.49 56.4629 104.421C56.6369 104.353 56.8405 104.318 57.0737 104.318C57.4181 104.318 57.6892 104.391 57.8869 104.537C58.0857 104.682 58.2017 104.881 58.2349 105.132Z" fill="#3E2080"/>
<path d="M1.76869 108.993V109.561H0.0854492V108.993H1.76869ZM0.470748 111.72V108.796C0.470748 108.598 0.509218 108.434 0.58616 108.304C0.664284 108.174 0.770819 108.076 0.905762 108.011C1.0407 107.946 1.19399 107.913 1.36563 107.913C1.48164 107.913 1.58758 107.922 1.68346 107.94C1.78052 107.958 1.85273 107.974 1.90008 107.988L1.76513 108.556C1.73554 108.546 1.69885 108.538 1.65505 108.529C1.61244 108.521 1.56864 108.517 1.52366 108.517C1.41239 108.517 1.33486 108.543 1.29106 108.595C1.24726 108.646 1.22536 108.717 1.22536 108.81V111.72H0.470748ZM2.23078 111.72V108.993H2.96409V109.469H2.9925C3.04221 109.299 3.12566 109.171 3.24285 109.085C3.36004 108.997 3.49498 108.954 3.64768 108.954C3.68556 108.954 3.7264 108.956 3.7702 108.961C3.81399 108.965 3.85246 108.972 3.88561 108.98V109.651C3.8501 109.641 3.80097 109.631 3.73823 109.623C3.6755 109.615 3.61809 109.611 3.566 109.611C3.45474 109.611 3.3553 109.635 3.26771 109.683C3.1813 109.731 3.11264 109.797 3.06174 109.882C3.01203 109.967 2.98717 110.066 2.98717 110.177V111.72H2.23078ZM5.38197 111.773C5.10616 111.773 4.86764 111.715 4.66641 111.597C4.46637 111.479 4.31189 111.315 4.20299 111.104C4.09409 110.892 4.03964 110.646 4.03964 110.367C4.03964 110.085 4.09409 109.839 4.20299 109.628C4.31189 109.416 4.46637 109.252 4.66641 109.135C4.86764 109.016 5.10616 108.957 5.38197 108.957C5.65777 108.957 5.8957 109.016 6.09575 109.135C6.29698 109.252 6.45204 109.416 6.56094 109.628C6.66985 109.839 6.7243 110.085 6.7243 110.367C6.7243 110.646 6.66985 110.892 6.56094 111.104C6.45204 111.315 6.29698 111.479 6.09575 111.597C5.8957 111.715 5.65777 111.773 5.38197 111.773ZM5.38552 111.187C5.51099 111.187 5.61575 111.152 5.69979 111.081C5.78384 111.009 5.84717 110.91 5.88978 110.786C5.93358 110.662 5.95548 110.52 5.95548 110.362C5.95548 110.203 5.93358 110.062 5.88978 109.937C5.84717 109.813 5.78384 109.715 5.69979 109.643C5.61575 109.57 5.51099 109.534 5.38552 109.534C5.25886 109.534 5.15233 109.57 5.06592 109.643C4.98069 109.715 4.91618 109.813 4.87238 109.937C4.82977 110.062 4.80846 110.203 4.80846 110.362C4.80846 110.52 4.82977 110.662 4.87238 110.786C4.91618 110.91 4.98069 111.009 5.06592 111.081C5.15233 111.152 5.25886 111.187 5.38552 111.187ZM7.21613 111.72V108.993H7.93701V109.474H7.96897C8.02579 109.314 8.12049 109.188 8.25306 109.096C8.38564 109.003 8.54425 108.957 8.72891 108.957C8.91594 108.957 9.07515 109.004 9.20654 109.097C9.33793 109.19 9.42553 109.315 9.46933 109.474H9.49773C9.55337 109.318 9.65398 109.193 9.79958 109.099C9.94636 109.005 10.1198 108.957 10.3198 108.957C10.5743 108.957 10.7809 109.038 10.9395 109.2C11.0993 109.361 11.1792 109.59 11.1792 109.886V111.72H10.4246V110.035C10.4246 109.883 10.3843 109.77 10.3038 109.694C10.2233 109.618 10.1227 109.58 10.002 109.58C9.86468 109.58 9.75756 109.624 9.68062 109.712C9.60368 109.798 9.56521 109.912 9.56521 110.054V111.72H8.8319V110.019C8.8319 109.885 8.79343 109.779 8.71648 109.699C8.64073 109.62 8.5407 109.58 8.41641 109.58C8.33237 109.58 8.25661 109.602 8.18914 109.644C8.12285 109.686 8.07018 109.744 8.03111 109.82C7.99205 109.895 7.97252 109.982 7.97252 110.083V111.72H7.21613ZM14.3845 108.993V109.561H12.7421V108.993H14.3845ZM13.115 108.339H13.8714V110.882C13.8714 110.952 13.882 111.006 13.9033 111.045C13.9246 111.083 13.9542 111.11 13.9921 111.125C14.0312 111.141 14.0762 111.148 14.1271 111.148C14.1626 111.148 14.1981 111.145 14.2336 111.139C14.2691 111.132 14.2963 111.127 14.3153 111.123L14.4342 111.686C14.3964 111.698 14.3431 111.712 14.2744 111.727C14.2058 111.744 14.1223 111.754 14.0241 111.757C13.8418 111.764 13.682 111.74 13.5447 111.684C13.4086 111.629 13.3026 111.542 13.2269 111.425C13.1511 111.308 13.1138 111.16 13.115 110.981V108.339ZM15.6922 110.143V111.72H14.9358V108.084H15.6709V109.474H15.7029C15.7644 109.313 15.8639 109.187 16.0012 109.096C16.1385 109.003 16.3107 108.957 16.5179 108.957C16.7073 108.957 16.8724 108.999 17.0133 109.081C17.1553 109.163 17.2654 109.281 17.3435 109.435C17.4228 109.588 17.4619 109.77 17.4607 109.983V111.72H16.7043V110.118C16.7055 109.95 16.6629 109.82 16.5765 109.726C16.4912 109.632 16.3717 109.586 16.2178 109.586C16.1148 109.586 16.0237 109.608 15.9444 109.651C15.8662 109.695 15.8047 109.759 15.7597 109.843C15.7159 109.926 15.6934 110.026 15.6922 110.143ZM19.2989 111.773C19.0183 111.773 18.7768 111.716 18.5744 111.603C18.3732 111.488 18.2181 111.326 18.1092 111.116C18.0003 110.906 17.9459 110.656 17.9459 110.369C17.9459 110.088 18.0003 109.842 18.1092 109.63C18.2181 109.418 18.3714 109.253 18.5691 109.135C18.768 109.016 19.0011 108.957 19.2687 108.957C19.4486 108.957 19.6161 108.986 19.7712 109.044C19.9274 109.101 20.0635 109.187 20.1795 109.302C20.2967 109.416 20.3879 109.561 20.453 109.735C20.5181 109.908 20.5506 110.11 20.5506 110.342V110.55H18.2477V110.081H19.8386C19.8386 109.972 19.8149 109.876 19.7676 109.792C19.7203 109.708 19.6546 109.642 19.5705 109.595C19.4877 109.546 19.3912 109.522 19.2811 109.522C19.1663 109.522 19.0645 109.548 18.9757 109.602C18.8881 109.654 18.8194 109.724 18.7697 109.813C18.72 109.901 18.6946 109.998 18.6934 110.106V110.552C18.6934 110.687 18.7182 110.803 18.768 110.901C18.8189 111 18.8905 111.075 18.9828 111.129C19.0751 111.182 19.1846 111.209 19.3113 111.209C19.3953 111.209 19.4723 111.197 19.5421 111.173C19.6119 111.149 19.6717 111.114 19.7214 111.067C19.7712 111.019 19.809 110.961 19.8351 110.893L20.5346 110.939C20.4991 111.107 20.4263 111.254 20.3163 111.379C20.2073 111.503 20.0665 111.6 19.8937 111.67C19.722 111.739 19.5238 111.773 19.2989 111.773ZM25.2572 108.084V111.72H24.5932L23.0111 109.431H22.9845V111.72H22.2157V108.084H22.8904L24.46 110.371H24.4919V108.084H25.2572ZM27.1105 111.773C26.8347 111.773 26.5961 111.715 26.3949 111.597C26.1949 111.479 26.0404 111.315 25.9315 111.104C25.8226 110.892 25.7681 110.646 25.7681 110.367C25.7681 110.085 25.8226 109.839 25.9315 109.628C26.0404 109.416 26.1949 109.252 26.3949 109.135C26.5961 109.016 26.8347 108.957 27.1105 108.957C27.3863 108.957 27.6242 109.016 27.8242 109.135C28.0255 109.252 28.1805 109.416 28.2894 109.628C28.3983 109.839 28.4528 110.085 28.4528 110.367C28.4528 110.646 28.3983 110.892 28.2894 111.104C28.1805 111.315 28.0255 111.479 27.8242 111.597C27.6242 111.715 27.3863 111.773 27.1105 111.773ZM27.114 111.187C27.2395 111.187 27.3442 111.152 27.4283 111.081C27.5123 111.009 27.5757 110.91 27.6183 110.786C27.6621 110.662 27.684 110.52 27.684 110.362C27.684 110.203 27.6621 110.062 27.6183 109.937C27.5757 109.813 27.5123 109.715 27.4283 109.643C27.3442 109.57 27.2395 109.534 27.114 109.534C26.9874 109.534 26.8808 109.57 26.7944 109.643C26.7092 109.715 26.6447 109.813 26.6009 109.937C26.5583 110.062 26.537 110.203 26.537 110.362C26.537 110.52 26.5583 110.662 26.6009 110.786C26.6447 110.91 26.7092 111.009 26.7944 111.081C26.8808 111.152 26.9874 111.187 27.114 111.187ZM30.6936 110.559V108.993H31.45V111.72H30.7237V111.225H30.6953C30.6338 111.384 30.5314 111.513 30.3882 111.61C30.2461 111.707 30.0727 111.755 29.8679 111.755C29.6856 111.755 29.5252 111.714 29.3867 111.631C29.2482 111.548 29.1399 111.431 29.0618 111.278C28.9849 111.125 28.9458 110.942 28.9446 110.729V108.993H29.701V110.594C29.7022 110.755 29.7454 110.882 29.8306 110.976C29.9159 111.07 30.0301 111.116 30.1733 111.116C30.2645 111.116 30.3497 111.096 30.429 111.054C30.5083 111.012 30.5722 110.949 30.6208 110.866C30.6705 110.783 30.6947 110.681 30.6936 110.559ZM32.8114 110.143V111.72H32.055V108.993H32.7759V109.474H32.8078C32.8682 109.315 32.9694 109.19 33.1114 109.097C33.2535 109.004 33.4257 108.957 33.6281 108.957C33.8175 108.957 33.9827 108.999 34.1235 109.081C34.2644 109.164 34.3739 109.283 34.452 109.437C34.5301 109.589 34.5692 109.772 34.5692 109.983V111.72H33.8128V110.118C33.814 109.952 33.7714 109.821 33.6849 109.728C33.5985 109.633 33.4796 109.586 33.3281 109.586C33.2263 109.586 33.1363 109.608 33.0582 109.651C32.9812 109.695 32.9209 109.759 32.8771 109.843C32.8345 109.926 32.8126 110.026 32.8114 110.143ZM36.3368 111.72V108.084H37.7714C38.0472 108.084 38.2822 108.136 38.4763 108.242C38.6704 108.346 38.8184 108.491 38.9202 108.677C39.0232 108.861 39.0747 109.074 39.0747 109.316C39.0747 109.557 39.0226 109.77 38.9184 109.955C38.8143 110.14 38.6633 110.284 38.4657 110.387C38.2692 110.49 38.0312 110.541 37.7519 110.541H36.8375V109.925H37.6276C37.7756 109.925 37.8975 109.899 37.9934 109.849C38.0904 109.796 38.1626 109.725 38.21 109.634C38.2585 109.541 38.2828 109.435 38.2828 109.316C38.2828 109.195 38.2585 109.09 38.21 109C38.1626 108.909 38.0904 108.838 37.9934 108.789C37.8963 108.738 37.7732 108.712 37.624 108.712H37.1056V111.72H36.3368ZM39.5599 111.72V108.993H40.2932V109.469H40.3216C40.3713 109.299 40.4547 109.171 40.5719 109.085C40.6891 108.997 40.8241 108.954 40.9768 108.954C41.0146 108.954 41.0555 108.956 41.0993 108.961C41.1431 108.965 41.1815 108.972 41.2147 108.98V109.651C41.1792 109.641 41.1301 109.631 41.0673 109.623C41.0046 109.615 40.9472 109.611 40.8951 109.611C40.7838 109.611 40.6844 109.635 40.5968 109.683C40.5104 109.731 40.4417 109.797 40.3908 109.882C40.3411 109.967 40.3163 110.066 40.3163 110.177V111.72H39.5599ZM42.711 111.773C42.4352 111.773 42.1967 111.715 41.9955 111.597C41.7954 111.479 41.641 111.315 41.5321 111.104C41.4232 110.892 41.3687 110.646 41.3687 110.367C41.3687 110.085 41.4232 109.839 41.5321 109.628C41.641 109.416 41.7954 109.252 41.9955 109.135C42.1967 109.016 42.4352 108.957 42.711 108.957C42.9869 108.957 43.2248 109.016 43.4248 109.135C43.6261 109.252 43.7811 109.416 43.89 109.628C43.9989 109.839 44.0534 110.085 44.0534 110.367C44.0534 110.646 43.9989 110.892 43.89 111.104C43.7811 111.315 43.6261 111.479 43.4248 111.597C43.2248 111.715 42.9869 111.773 42.711 111.773ZM42.7146 111.187C42.8401 111.187 42.9448 111.152 43.0289 111.081C43.1129 111.009 43.1762 110.91 43.2189 110.786C43.2627 110.662 43.2846 110.52 43.2846 110.362C43.2846 110.203 43.2627 110.062 43.2189 109.937C43.1762 109.813 43.1129 109.715 43.0289 109.643C42.9448 109.57 42.8401 109.534 42.7146 109.534C42.5879 109.534 42.4814 109.57 42.395 109.643C42.3098 109.715 42.2453 109.813 42.2015 109.937C42.1588 110.062 42.1375 110.203 42.1375 110.362C42.1375 110.52 42.1588 110.662 42.2015 110.786C42.2453 110.91 42.3098 111.009 42.395 111.081C42.4814 111.152 42.5879 111.187 42.7146 111.187ZM44.5452 108.993H45.3016V111.855C45.3016 112.066 45.2602 112.236 45.1773 112.366C45.0945 112.496 44.9755 112.592 44.8204 112.652C44.6665 112.713 44.4825 112.743 44.2682 112.743C44.2422 112.743 44.2173 112.742 44.1936 112.741C44.1688 112.741 44.1427 112.74 44.1155 112.739V112.148C44.1356 112.149 44.1534 112.15 44.1688 112.15C44.183 112.151 44.1984 112.151 44.215 112.151C44.3369 112.151 44.4221 112.125 44.4706 112.073C44.5204 112.022 44.5452 111.945 44.5452 111.842V108.993ZM44.9216 108.641C44.8104 108.641 44.7145 108.604 44.634 108.529C44.5535 108.454 44.5133 108.363 44.5133 108.258C44.5133 108.153 44.5535 108.064 44.634 107.99C44.7145 107.914 44.8104 107.876 44.9216 107.876C45.0353 107.876 45.1317 107.914 45.211 107.99C45.2915 108.064 45.3318 108.153 45.3318 108.258C45.3318 108.363 45.2915 108.454 45.211 108.529C45.1317 108.604 45.0353 108.641 44.9216 108.641ZM47.1504 111.773C46.8699 111.773 46.6284 111.716 46.426 111.603C46.2248 111.488 46.0697 111.326 45.9608 111.116C45.8519 110.906 45.7974 110.656 45.7974 110.369C45.7974 110.088 45.8519 109.842 45.9608 109.63C46.0697 109.418 46.223 109.253 46.4207 109.135C46.6195 109.016 46.8527 108.957 47.1202 108.957C47.3002 108.957 47.4676 108.986 47.6227 109.044C47.779 109.101 47.9151 109.187 48.0311 109.302C48.1483 109.416 48.2394 109.561 48.3045 109.735C48.3696 109.908 48.4022 110.11 48.4022 110.342V110.55H46.0993V110.081H47.6902C47.6902 109.972 47.6665 109.876 47.6192 109.792C47.5718 109.708 47.5061 109.642 47.4221 109.595C47.3392 109.546 47.2427 109.522 47.1327 109.522C47.0178 109.522 46.916 109.548 46.8273 109.602C46.7397 109.654 46.671 109.724 46.6213 109.813C46.5716 109.901 46.5461 109.998 46.5449 110.106V110.552C46.5449 110.687 46.5698 110.803 46.6195 110.901C46.6704 111 46.742 111.075 46.8344 111.129C46.9267 111.182 47.0362 111.209 47.1628 111.209C47.2469 111.209 47.3238 111.197 47.3937 111.173C47.4635 111.149 47.5233 111.114 47.573 111.067C47.6227 111.019 47.6606 110.961 47.6866 110.893L48.3862 110.939C48.3507 111.107 48.2779 111.254 48.1678 111.379C48.0589 111.503 47.9181 111.6 47.7452 111.67C47.5736 111.739 47.3753 111.773 47.1504 111.773ZM50.128 111.773C49.8487 111.773 49.6084 111.714 49.4072 111.596C49.2071 111.476 49.0532 111.31 48.9455 111.099C48.839 110.887 48.7857 110.643 48.7857 110.367C48.7857 110.088 48.8396 109.843 48.9473 109.632C49.0562 109.42 49.2107 109.255 49.4107 109.137C49.6108 109.017 49.8487 108.957 50.1245 108.957C50.3624 108.957 50.5707 109 50.7495 109.087C50.9282 109.173 51.0697 109.295 51.1739 109.451C51.278 109.607 51.3354 109.791 51.3461 110.001H50.6323C50.6122 109.865 50.5589 109.756 50.4725 109.673C50.3873 109.589 50.2754 109.547 50.1369 109.547C50.0197 109.547 49.9173 109.579 49.8297 109.643C49.7433 109.705 49.6759 109.797 49.6273 109.918C49.5788 110.039 49.5545 110.185 49.5545 110.356C49.5545 110.53 49.5782 110.678 49.6256 110.8C49.6741 110.922 49.7422 111.015 49.8297 111.079C49.9173 111.143 50.0197 111.175 50.1369 111.175C50.2233 111.175 50.3009 111.157 50.3695 111.122C50.4394 111.086 50.4968 111.035 50.5417 110.967C50.5879 110.898 50.6181 110.816 50.6323 110.72H51.3461C51.3342 110.929 51.2774 111.112 51.1756 111.271C51.075 111.428 50.9359 111.551 50.7584 111.64C50.5808 111.729 50.3707 111.773 50.128 111.773ZM53.281 108.993V109.561H51.6386V108.993H53.281ZM52.0115 108.339H52.7679V110.882C52.7679 110.952 52.7785 111.006 52.7998 111.045C52.8211 111.083 52.8507 111.11 52.8886 111.125C52.9277 111.141 52.9726 111.148 53.0235 111.148C53.0591 111.148 53.0946 111.145 53.1301 111.139C53.1656 111.132 53.1928 111.127 53.2118 111.123L53.3307 111.686C53.2928 111.698 53.2396 111.712 53.1709 111.727C53.1023 111.744 53.0188 111.754 52.9206 111.757C52.7383 111.764 52.5785 111.74 52.4412 111.684C52.305 111.629 52.1991 111.542 52.1233 111.425C52.0476 111.308 52.0103 111.16 52.0115 110.981V108.339Z" fill="#3E2080"/>
</g>
<path d="M63 100.224H0V112.288H63V100.224Z" fill="#3E2080"/>
</svg>
